<svg xmlns="http://www.w3.org/2000/svg" viewBox="0 0 678 64">
  <path fill="#222" d="M48 48v16H0V0h16v48zM104 0v40c0 13.3-10.7 24-23.9 24h-.2C66.7 64 56 53.3 56 40V0h16v40c0 4.4 3.6 8 8 8h1c4.4 0 8-3.6 8-8V0h15zM143.6 48c-8.7 0-15.8-7.2-15.8-16s7.1-16 15.8-16c4.4 0 8.3 1.8 11.2 4.7L166 9.4C160.3 3.6 152.4 0 143.6 0 126.2 0 112 14.3 112 32s14.2 32 31.6 32c8.7 0 16.6-3.6 22.4-9.4l-11.2-11.3C152 46.2 148 48 143.6 48zM174 0h16v64h-16zM246 64h16L230 0l-32 64h16l8-16h16zM318 0v64h-16l-16-30v30h-16V0h16l16 30V0zM358 0c-17.7 0-32 14.3-32 32s14.3 32 32 32 32-14.3 32-32-14.3-32-32-32zm0 48c-8.8 0-16-7.2-16-16s7.2-16 16-16 16 7.2 16 16-7.2 16-16 16zM422 0v64h15V40h17V24h-17v-8h33V0zM478 0v64h48V47h-32v-7h16V24h-16v-8h32V0zM582 48v16h-48V0h16v48zM590 0h16v64h-16zM678 0h-19.5L646 18 633.5 0H614l22.3 32L614 64h19.5L646 46l12.5 18H678l-22.3-32z"/>
</svg>